<mxfile host="app.diagrams.net" modified="2020-12-03T16:13:48.725Z" agent="5.0 (Windows NT 10.0; Win64; x64) AppleWebKit/537.36 (KHTML, like Gecko) Chrome/86.0.4240.198 Safari/537.36 OPR/72.0.3815.400" etag="tKvgRhv6y14NPYW6mQGV" version="13.10.1" type="github">
  <diagram id="HXny-RfDsCwJ_czHxS2v" name="Page-1">
    <mxGraphModel dx="570" dy="337" grid="1" gridSize="10" guides="1" tooltips="1" connect="1" arrows="1" fold="1" page="1" pageScale="1" pageWidth="413" pageHeight="291" math="0" shadow="0">
      <root>
        <mxCell id="0" />
        <mxCell id="1" parent="0" />
        <mxCell id="e6vL8IdVQCHlqtcg3fN9-1" value="" style="whiteSpace=wrap;html=1;aspect=fixed;" vertex="1" parent="1">
          <mxGeometry x="30" y="20" width="140" height="140" as="geometry" />
        </mxCell>
        <mxCell id="e6vL8IdVQCHlqtcg3fN9-2" value="localhost:3000" style="rounded=1;whiteSpace=wrap;html=1;" vertex="1" parent="1">
          <mxGeometry x="37.5" y="10" width="85" height="20" as="geometry" />
        </mxCell>
        <mxCell id="e6vL8IdVQCHlqtcg3fN9-3" value="FRONTEND (ReactJS)&lt;br&gt;" style="text;html=1;strokeColor=none;fillColor=none;align=center;verticalAlign=middle;whiteSpace=wrap;rounded=0;" vertex="1" parent="1">
          <mxGeometry x="30" y="160" width="140" height="20" as="geometry" />
        </mxCell>
        <mxCell id="e6vL8IdVQCHlqtcg3fN9-4" value="App.js (entry point)" style="rounded=0;whiteSpace=wrap;html=1;" vertex="1" parent="1">
          <mxGeometry x="38.75" y="130" width="122.5" height="26" as="geometry" />
        </mxCell>
        <mxCell id="e6vL8IdVQCHlqtcg3fN9-5" value="Router &amp;gt; Route" style="rounded=0;whiteSpace=wrap;html=1;" vertex="1" parent="1">
          <mxGeometry x="38.75" y="100" width="122.5" height="26" as="geometry" />
        </mxCell>
        <mxCell id="e6vL8IdVQCHlqtcg3fN9-6" value="" style="whiteSpace=wrap;html=1;aspect=fixed;" vertex="1" parent="1">
          <mxGeometry x="240" y="20" width="140" height="140" as="geometry" />
        </mxCell>
        <mxCell id="e6vL8IdVQCHlqtcg3fN9-7" value="BACKEND (node express)" style="text;html=1;strokeColor=none;fillColor=none;align=center;verticalAlign=middle;whiteSpace=wrap;rounded=0;" vertex="1" parent="1">
          <mxGeometry x="240" y="160" width="150" height="20" as="geometry" />
        </mxCell>
        <mxCell id="e6vL8IdVQCHlqtcg3fN9-9" value="server.js (entry point)" style="rounded=0;whiteSpace=wrap;html=1;" vertex="1" parent="1">
          <mxGeometry x="250" y="136" width="120" height="20" as="geometry" />
        </mxCell>
        <mxCell id="e6vL8IdVQCHlqtcg3fN9-10" value="routes" style="rounded=0;whiteSpace=wrap;html=1;" vertex="1" parent="1">
          <mxGeometry x="250" y="110" width="120" height="20" as="geometry" />
        </mxCell>
        <mxCell id="e6vL8IdVQCHlqtcg3fN9-11" value="controllers" style="rounded=0;whiteSpace=wrap;html=1;" vertex="1" parent="1">
          <mxGeometry x="250" y="85" width="120" height="20" as="geometry" />
        </mxCell>
        <mxCell id="e6vL8IdVQCHlqtcg3fN9-12" value="models" style="rounded=0;whiteSpace=wrap;html=1;" vertex="1" parent="1">
          <mxGeometry x="250" y="60" width="120" height="20" as="geometry" />
        </mxCell>
        <mxCell id="e6vL8IdVQCHlqtcg3fN9-13" value="" style="shape=flexArrow;endArrow=classic;startArrow=classic;html=1;startWidth=18.285714285714285;startSize=4.017142857142857;" edge="1" parent="1">
          <mxGeometry width="50" height="50" relative="1" as="geometry">
            <mxPoint x="182" y="90" as="sourcePoint" />
            <mxPoint x="230" y="90" as="targetPoint" />
            <Array as="points">
              <mxPoint x="200" y="90" />
            </Array>
          </mxGeometry>
        </mxCell>
        <mxCell id="e6vL8IdVQCHlqtcg3fN9-14" value="HTTP" style="text;html=1;strokeColor=none;fillColor=none;align=center;verticalAlign=middle;whiteSpace=wrap;rounded=0;" vertex="1" parent="1">
          <mxGeometry x="187" y="50" width="40" height="20" as="geometry" />
        </mxCell>
        <mxCell id="e6vL8IdVQCHlqtcg3fN9-18" value="&lt;pre style=&quot;box-sizing: border-box ; font-family: , &amp;#34;consolas&amp;#34; , &amp;#34;liberation mono&amp;#34; , &amp;#34;menlo&amp;#34; , monospace ; font-size: 13.6px ; margin-top: 0px ; overflow-wrap: normal ; padding: 16px ; overflow: auto ; line-height: 1.45 ; border-radius: 6px ; color: rgb(36 , 41 , 46) ; margin-bottom: 0px&quot;&gt;&lt;pre style=&quot;box-sizing: border-box ; font-family: , &amp;#34;consolas&amp;#34; , &amp;#34;liberation mono&amp;#34; , &amp;#34;menlo&amp;#34; , monospace ; margin-top: 0px ; overflow-wrap: normal ; padding: 16px ; overflow: auto ; line-height: 1.45 ; border-radius: 6px ; margin-bottom: 0px&quot;&gt;&lt;code style=&quot;box-sizing: border-box ; font-family: , &amp;#34;consolas&amp;#34; , &amp;#34;liberation mono&amp;#34; , &amp;#34;menlo&amp;#34; , monospace ; padding: 0px ; margin: 0px ; border-radius: 6px ; word-break: normal ; border: 0px ; display: inline ; overflow: visible ; line-height: inherit ; overflow-wrap: normal&quot;&gt;get: /users/:id&lt;br/&gt;post: /users&lt;br/&gt;&lt;br/&gt;get: /users/:id/notes&lt;br/&gt;get: /notes/:id&lt;br/&gt;post: /users/:id/notes&lt;br/&gt;put: /notes/:id&lt;br/&gt;delete: /notes/:id&lt;br/&gt;&lt;br/&gt;get: /users/:id/books&lt;br/&gt;get: /books/:id&lt;br/&gt;post: /users/:id/books&lt;br/&gt;put: /books/:id&lt;br/&gt;delete: /books/:id&lt;br/&gt;&lt;br/&gt;get: /users/:id/reminders&lt;br/&gt;get: /reminders/:id&lt;br/&gt;post: /users/:id/reminders&lt;br/&gt;put: /reminders/:id&lt;br/&gt;delete: /reminders/:id&lt;br/&gt;&lt;br/&gt;get: /users/:id/shared&lt;br/&gt;get: /shared/:id&lt;br/&gt;post: /users/:id/shared&lt;br/&gt;put: /shared/:id&lt;br/&gt;delete: /shared/:id&lt;/code&gt;&lt;/pre&gt;&lt;/pre&gt;" style="rounded=0;whiteSpace=wrap;html=1;" vertex="1" parent="1">
          <mxGeometry x="107" y="200" width="200" height="560" as="geometry" />
        </mxCell>
        <mxCell id="e6vL8IdVQCHlqtcg3fN9-19" value="API CALLS" style="text;html=1;strokeColor=none;fillColor=none;align=center;verticalAlign=middle;whiteSpace=wrap;rounded=0;fontSize=22;" vertex="1" parent="1">
          <mxGeometry x="107" y="760" width="203" height="40" as="geometry" />
        </mxCell>
        <mxCell id="e6vL8IdVQCHlqtcg3fN9-20" value="" style="shape=cylinder3;whiteSpace=wrap;html=1;boundedLbl=1;backgroundOutline=1;size=15;fontSize=22;" vertex="1" parent="1">
          <mxGeometry x="530" y="60" width="150" height="150" as="geometry" />
        </mxCell>
        <mxCell id="e6vL8IdVQCHlqtcg3fN9-22" value="localhost:8080" style="rounded=1;whiteSpace=wrap;html=1;" vertex="1" parent="1">
          <mxGeometry x="250" y="10" width="85" height="20" as="geometry" />
        </mxCell>
        <mxCell id="e6vL8IdVQCHlqtcg3fN9-23" value="localhost:3306" style="rounded=1;whiteSpace=wrap;html=1;" vertex="1" parent="1">
          <mxGeometry x="562.5" y="50" width="85" height="20" as="geometry" />
        </mxCell>
        <mxCell id="e6vL8IdVQCHlqtcg3fN9-24" value="" style="shape=flexArrow;endArrow=classic;startArrow=classic;html=1;fontSize=22;" edge="1" parent="1">
          <mxGeometry width="50" height="50" relative="1" as="geometry">
            <mxPoint x="390" y="90" as="sourcePoint" />
            <mxPoint x="520" y="170" as="targetPoint" />
          </mxGeometry>
        </mxCell>
      </root>
    </mxGraphModel>
  </diagram>
</mxfile>
